<svg xmlns="http://www.w3.org/2000/svg" xmlns:xlink="http://www.w3.org/1999/xlink" width="146" zoomAndPan="magnify" viewBox="0 0 109.5 124.499995" height="166" preserveAspectRatio="xMidYMid meet" version="1.0"><defs><g/><clipPath id="9d69c64b7b"><path d="M 0 0.0351562 L 109.003906 0.0351562 L 109.003906 123.96875 L 0 123.96875 Z M 0 0.0351562 " clip-rule="nonzero"/></clipPath><clipPath id="834210c88f"><path d="M 0.855469 2.179688 L 92.328125 2.179688 L 92.328125 89.15625 L 0.855469 89.15625 Z M 0.855469 2.179688 " clip-rule="nonzero"/></clipPath><clipPath id="ec8a38a50f"><path d="M 92.308594 56.609375 C 92.285156 56.140625 92.089844 55.785156 91.875 55.515625 C 91.496094 55.042969 91.011719 54.792969 90.503906 54.765625 C 90.679688 54.449219 90.851562 54.109375 90.996094 53.757812 C 91.140625 53.410156 91.261719 53.046875 91.367188 52.675781 C 91.5 52.207031 91.578125 51.664062 91.390625 51.25 C 91.230469 50.875 90.917969 50.773438 90.628906 50.800781 C 89.992188 50.859375 89.367188 51.273438 88.828125 51.832031 C 88.3125 52.363281 87.941406 53.039062 87.644531 53.847656 C 87.351562 54.644531 87.140625 55.535156 87.027344 56.410156 C 86.367188 56.785156 85.703125 57.140625 85.023438 57.410156 L 91.828125 45.667969 L 85.9375 35.5 L 86.78125 29.585938 L 86.796875 29.460938 L 84.105469 27.359375 L 84.105469 23.949219 L 76.808594 19.753906 L 69.148438 6.535156 L 69.085938 6.425781 L 57.300781 6.425781 L 52.484375 2.664062 L 49.308594 3.9375 L 46.449219 2.292969 L 46.34375 2.230469 L 39.046875 6.425781 L 23.597656 6.425781 L 17.707031 16.59375 L 12.140625 18.824219 L 12.027344 18.867188 L 11.542969 22.246094 L 8.6875 23.886719 L 8.582031 23.949219 L 8.582031 32.339844 L 0.855469 45.667969 L 6.75 55.832031 L 5.902344 61.746094 L 5.886719 61.871094 L 8.582031 63.972656 L 8.582031 67.382812 L 15.875 71.578125 L 23.539062 84.796875 L 23.597656 84.90625 L 35.382812 84.90625 L 40.203125 88.667969 L 43.378906 87.398438 L 46.234375 89.039062 L 46.34375 89.101562 L 53.636719 84.90625 L 69.085938 84.90625 L 74.976562 74.738281 L 80.660156 72.464844 L 81.140625 69.089844 L 83.996094 67.445312 L 84.105469 67.382812 L 84.105469 63.773438 C 84.542969 64.003906 85.003906 64.183594 85.46875 64.34375 C 85.660156 64.40625 85.898438 64.046875 85.820312 63.796875 C 85.488281 62.8125 85.039062 61.945312 84.507812 61.222656 C 84.378906 61.050781 84.242188 60.886719 84.105469 60.734375 L 84.105469 58.992188 L 84.535156 58.253906 C 84.703125 58.199219 84.875 58.140625 85.042969 58.074219 C 85.746094 57.804688 86.457031 57.449219 87.136719 57.0625 C 87.558594 57.574219 88.015625 57.996094 88.511719 58.332031 C 89.03125 58.683594 89.5625 58.964844 90.179688 58.949219 C 90.75 58.9375 91.425781 58.636719 91.894531 57.96875 C 92.148438 57.609375 92.335938 57.109375 92.308594 56.609375 Z M 8.582031 63.429688 L 6.347656 61.6875 L 7.097656 56.4375 L 8.582031 58.992188 Z M 8.582031 58.132812 L 7.195312 55.746094 L 7.46875 53.832031 L 8.582031 55.746094 Z M 8.582031 54.886719 L 7.570312 53.140625 L 8.582031 46.058594 Z M 8.582031 43.003906 L 7.21875 52.539062 L 3.238281 45.667969 L 8.582031 36.449219 Z M 8.582031 35.585938 L 2.738281 45.667969 L 7.121094 53.226562 L 6.847656 55.144531 L 1.355469 45.667969 L 8.582031 33.199219 Z M 86.40625 53.394531 C 86.140625 53.996094 85.84375 54.570312 85.515625 55.101562 C 85.175781 55.632812 84.804688 56.125 84.414062 56.5625 C 84.3125 56.675781 84.210938 56.785156 84.105469 56.890625 L 84.105469 55.746094 L 87.34375 50.15625 C 87.269531 50.601562 87.179688 51.042969 87.0625 51.480469 C 86.878906 52.140625 86.664062 52.78125 86.40625 53.394531 Z M 85.171875 47.191406 C 84.832031 47.371094 84.503906 47.582031 84.179688 47.808594 L 85.464844 38.796875 L 88.042969 43.242188 C 87.851562 43.648438 87.679688 44.085938 87.539062 44.539062 C 87.339844 44.074219 87.074219 43.671875 86.75 43.375 C 86.246094 42.917969 85.492188 42.632812 85.089844 43.449219 C 84.753906 44.117188 84.835938 45.097656 85 45.816406 C 85.199219 46.636719 85.574219 47.292969 86.003906 47.890625 C 86.40625 48.441406 86.84375 48.929688 87.316406 49.34375 L 84.105469 54.886719 L 84.105469 50.402344 C 84.304688 50.101562 84.492188 49.78125 84.664062 49.453125 C 84.972656 48.882812 85.21875 48.28125 85.46875 47.664062 C 85.589844 47.351562 85.398438 47.070312 85.171875 47.191406 Z M 83.128906 59.816406 C 82.960938 59.691406 82.792969 59.570312 82.617188 59.460938 C 82.585938 59.441406 82.554688 59.425781 82.523438 59.40625 L 82.617188 58.75 C 82.722656 58.691406 82.824219 58.628906 82.925781 58.566406 C 83.175781 58.550781 83.425781 58.519531 83.671875 58.472656 L 83.671875 58.878906 Z M 83.671875 59.738281 L 83.671875 60.289062 C 83.605469 60.222656 83.535156 60.160156 83.464844 60.097656 Z M 83.144531 57.71875 C 83.046875 57.792969 82.945312 57.859375 82.847656 57.921875 C 82.84375 57.925781 82.84375 57.925781 82.839844 57.929688 L 83.671875 56.492188 L 83.671875 57.292969 C 83.5 57.445312 83.320312 57.589844 83.144531 57.71875 Z M 82.863281 57.027344 L 83.671875 51.351562 L 83.671875 55.628906 Z M 82.285156 58.027344 L 82.09375 58.359375 C 81.90625 58.453125 81.71875 58.546875 81.527344 58.632812 C 81.109375 58.832031 80.671875 59.042969 80.246094 59.304688 C 79.824219 59.5625 79.425781 59.871094 79.054688 60.246094 L 79.191406 59.769531 L 79.308594 59.289062 C 79.839844 57.199219 80.238281 55.082031 80.527344 52.957031 C 80.945312 52.933594 81.355469 52.820312 81.746094 52.636719 C 82.132812 52.453125 82.503906 52.195312 82.855469 51.882812 C 82.976562 51.773438 83.09375 51.65625 83.210938 51.535156 Z M 82.121094 59.167969 L 82.121094 59.183594 C 82.117188 59.179688 82.117188 59.179688 82.113281 59.179688 Z M 74.417969 72.457031 L 81.289062 60.601562 C 81.335938 60.726562 81.382812 60.851562 81.4375 60.972656 C 81.535156 61.199219 81.648438 61.410156 81.773438 61.613281 L 81.667969 62.335938 L 76.492188 71.265625 Z M 77.648438 71.621094 C 76.492188 72.289062 75.351562 72.832031 74.167969 73.203125 C 74.453125 73.03125 74.742188 72.871094 75.035156 72.722656 C 75.320312 72.566406 75.605469 72.417969 75.894531 72.285156 C 76.46875 72.015625 77.066406 71.796875 77.648438 71.621094 Z M 73.671875 72.886719 L 73.628906 72.914062 C 74.734375 71.097656 75.742188 69.214844 76.585938 67.261719 C 77.367188 65.460938 78.058594 63.621094 78.628906 61.746094 C 79.148438 60.605469 80.101562 60.003906 81 59.542969 C 81.03125 59.714844 81.074219 59.878906 81.117188 60.042969 Z M 80.703125 51.542969 L 80.777344 50.886719 C 81.054688 48.277344 81.179688 45.65625 81.191406 43.042969 C 81.1875 42.398438 81.191406 41.753906 81.179688 41.109375 C 81.164062 40.464844 81.160156 39.820312 81.132812 39.179688 C 81.953125 38.992188 82.664062 38.480469 83.261719 37.765625 C 83.40625 37.589844 83.542969 37.402344 83.671875 37.207031 L 83.671875 48.191406 C 83.445312 48.371094 83.222656 48.5625 83.007812 48.765625 C 82.328125 49.398438 81.695312 50.128906 81.121094 50.929688 C 80.976562 51.128906 80.835938 51.332031 80.703125 51.542969 Z M 78.421875 27.796875 C 78.613281 27.800781 78.8125 27.917969 78.976562 28.03125 C 79.410156 28.324219 79.761719 28.808594 79.976562 29.378906 L 79.976562 29.386719 C 80.027344 29.898438 80.078125 30.414062 80.121094 30.925781 L 80.183594 31.605469 C 79.519531 30.394531 78.929688 29.125 78.421875 27.796875 Z M 79.917969 32.164062 C 79.773438 32.019531 79.628906 31.859375 79.488281 31.695312 C 79.097656 31.230469 78.683594 30.800781 78.390625 30.222656 C 78.117188 29.699219 77.9375 29.050781 77.992188 28.429688 C 78 28.339844 78.015625 28.238281 78.039062 28.148438 C 78.582031 29.546875 79.207031 30.890625 79.917969 32.164062 Z M 79.65625 27.910156 L 75.96875 21.550781 L 78.5 23.527344 L 80.695312 27.316406 C 80.59375 27.527344 80.503906 27.75 80.421875 27.96875 C 80.335938 28.195312 80.257812 28.429688 80.191406 28.667969 C 80.042969 28.382812 79.859375 28.128906 79.65625 27.910156 Z M 82.011719 31.976562 C 82.015625 31.976562 82.015625 31.972656 82.015625 31.972656 C 82.210938 31.703125 82.386719 31.414062 82.53125 31.09375 C 82.585938 30.972656 82.628906 30.847656 82.667969 30.71875 L 83.671875 32.453125 L 83.671875 33.941406 C 83.5625 34.050781 83.453125 34.160156 83.34375 34.277344 Z M 83.042969 34.617188 C 83.011719 34.652344 82.976562 34.6875 82.945312 34.726562 C 82.363281 35.429688 81.839844 36.234375 81.394531 37.105469 C 81.285156 37.320312 81.183594 37.542969 81.082031 37.765625 L 81.011719 36.410156 C 80.988281 35.878906 80.949219 35.351562 80.914062 34.820312 C 80.878906 34.292969 80.84375 33.761719 80.800781 33.234375 C 81.132812 32.988281 81.441406 32.683594 81.726562 32.34375 Z M 82.800781 30.09375 C 82.804688 30.066406 82.8125 30.042969 82.816406 30.015625 C 82.921875 29.125 82.824219 28.152344 82.511719 27.316406 C 82.382812 26.960938 82.199219 26.589844 81.914062 26.433594 C 81.5625 26.234375 81.238281 26.453125 81.003906 26.777344 C 80.984375 26.808594 80.960938 26.84375 80.941406 26.878906 L 79.410156 24.238281 L 83.671875 27.566406 L 83.671875 31.59375 Z M 80.488281 29.503906 C 80.636719 28.773438 80.886719 28.082031 81.207031 27.472656 C 81.261719 27.378906 81.332031 27.238281 81.417969 27.132812 C 81.246094 28.476562 80.980469 29.792969 80.621094 31.0625 C 80.578125 30.554688 80.535156 30.050781 80.480469 29.546875 Z M 81.902344 27.152344 C 82.003906 27.304688 82.078125 27.523438 82.128906 27.679688 C 82.371094 28.398438 82.433594 29.195312 82.339844 29.945312 C 82.253906 30.574219 82 31.054688 81.679688 31.507812 C 81.40625 31.894531 81.089844 32.242188 80.746094 32.535156 L 80.734375 32.382812 C 81.285156 30.722656 81.679688 28.957031 81.902344 27.152344 Z M 82.640625 49.902344 C 83.058594 49.457031 83.515625 49.050781 83.96875 48.691406 C 83.585938 49.179688 83.164062 49.648438 82.746094 50.09375 C 82.539062 50.316406 82.328125 50.53125 82.113281 50.742188 C 81.898438 50.953125 81.675781 51.15625 81.453125 51.355469 C 81.832031 50.835938 82.222656 50.351562 82.640625 49.902344 Z M 83.339844 36.75 C 83.003906 37.261719 82.617188 37.707031 82.152344 38.046875 C 82.054688 38.117188 81.953125 38.183594 81.847656 38.246094 C 82.085938 37.929688 82.328125 37.613281 82.5625 37.296875 C 83.105469 36.554688 83.660156 35.796875 84.1875 35.039062 C 83.957031 35.652344 83.671875 36.238281 83.339844 36.75 Z M 84.105469 36.476562 C 84.109375 36.46875 84.109375 36.464844 84.113281 36.460938 L 85.117188 38.191406 L 84.105469 45.273438 Z M 84.339844 35.996094 C 84.464844 35.726562 84.582031 35.445312 84.683594 35.164062 C 84.757812 34.964844 84.824219 34.757812 84.890625 34.554688 L 85.488281 35.585938 L 85.214844 37.503906 Z M 88.589844 43.316406 C 88.664062 43.175781 88.761719 42.972656 88.878906 42.84375 C 88.769531 43.550781 88.625 44.265625 88.488281 44.964844 C 88.34375 45.667969 88.171875 46.375 88.003906 47.066406 C 87.96875 46.492188 87.90625 45.921875 87.8125 45.363281 C 88 44.632812 88.257812 43.945312 88.589844 43.316406 Z M 85.871094 43.582031 C 86.039062 43.601562 86.214844 43.71875 86.351562 43.824219 C 86.800781 44.171875 87.164062 44.757812 87.324219 45.464844 C 87.332031 45.496094 87.339844 45.523438 87.351562 45.546875 C 87.472656 46.292969 87.558594 47.050781 87.546875 47.824219 C 86.867188 46.515625 86.296875 45.085938 85.871094 43.582031 Z M 87.296875 48.507812 C 87.0625 48.285156 86.839844 48.042969 86.632812 47.78125 C 86.261719 47.308594 85.878906 46.808594 85.628906 46.175781 C 85.519531 45.890625 85.425781 45.566406 85.378906 45.234375 C 85.324219 44.90625 85.308594 44.5625 85.359375 44.234375 C 85.378906 44.117188 85.40625 43.996094 85.449219 43.886719 C 85.566406 44.296875 85.695312 44.703125 85.835938 45.101562 C 85.972656 45.5 86.113281 45.894531 86.265625 46.277344 C 86.417969 46.664062 86.589844 47.042969 86.757812 47.414062 C 86.925781 47.785156 87.105469 48.152344 87.296875 48.507812 Z M 91.332031 45.667969 L 87.082031 52.996094 C 87.441406 52.027344 87.707031 50.996094 87.863281 49.949219 C 87.878906 49.832031 87.894531 49.710938 87.910156 49.59375 C 88.433594 49.226562 88.894531 48.675781 89.285156 48.050781 C 89.71875 47.371094 89.992188 46.625 90.113281 45.730469 C 90.183594 45.246094 90.179688 44.753906 90.144531 44.269531 C 90.117188 43.972656 90.074219 43.675781 90.011719 43.390625 Z M 89.464844 43.226562 C 89.691406 43.941406 89.75 44.804688 89.65625 45.589844 C 89.5625 46.3125 89.34375 46.941406 89.011719 47.496094 C 88.734375 47.953125 88.414062 48.367188 88.0625 48.695312 C 88.617188 46.804688 89.023438 44.882812 89.347656 42.941406 C 89.394531 43.035156 89.433594 43.140625 89.464844 43.226562 Z M 89.238281 42.058594 C 88.914062 41.964844 88.621094 42.226562 88.410156 42.558594 C 88.363281 42.632812 88.324219 42.714844 88.28125 42.789062 L 85.566406 38.105469 L 85.839844 36.191406 Z M 84.105469 27.90625 L 86.335938 29.648438 L 85.585938 34.894531 L 85.058594 33.988281 C 85.101562 33.851562 85.140625 33.714844 85.179688 33.578125 L 85.179688 33.570312 C 85.1875 33.550781 85.191406 33.53125 85.195312 33.511719 L 85.242188 33.34375 C 85.320312 33.03125 85.09375 32.785156 84.882812 32.929688 C 84.78125 33 84.679688 33.082031 84.578125 33.15625 L 84.105469 32.339844 Z M 84.105469 33.199219 L 84.238281 33.425781 C 84.191406 33.464844 84.148438 33.503906 84.105469 33.542969 Z M 83.453125 35.136719 C 82.9375 35.871094 82.398438 36.601562 81.867188 37.316406 C 82.421875 36.265625 83.097656 35.328125 83.863281 34.554688 Z M 83.671875 24.199219 L 83.671875 27.019531 L 78.832031 23.238281 L 77.242188 20.5 Z M 77.921875 22.527344 L 75.390625 20.554688 L 74.417969 18.875 L 76.492188 20.070312 Z M 59.929688 8.480469 L 67.894531 8.480469 L 73.238281 17.699219 L 67.539062 14.421875 Z M 64.882812 12.894531 L 57.207031 8.480469 L 59.230469 8.480469 Z M 73.671875 18.445312 L 74.480469 19.84375 L 69.949219 16.304688 Z M 68.835938 6.855469 L 76.0625 19.324219 L 73.988281 18.128906 L 68.207031 8.160156 L 68.144531 8.050781 L 59.378906 8.050781 L 57.851562 6.855469 Z M 58.679688 8.050781 L 56.460938 8.050781 L 54.386719 6.855469 L 57.152344 6.855469 Z M 55.597656 8.050781 L 40.191406 8.050781 L 43.171875 6.855469 L 53.523438 6.855469 Z M 52.414062 3.15625 L 56.601562 6.425781 L 53.636719 6.425781 L 49.78125 4.210938 Z M 52.773438 6.425781 L 44.246094 6.425781 L 49.273438 4.414062 Z M 46.34375 2.726562 L 48.796875 4.140625 L 43.089844 6.425781 L 39.910156 6.425781 Z M 39.164062 6.855469 L 42.015625 6.855469 L 39.035156 8.050781 L 37.085938 8.050781 Z M 20.808594 15.351562 L 24.789062 8.480469 L 35.476562 8.480469 L 29.777344 11.757812 Z M 27.121094 13.285156 L 19.445312 17.699219 L 20.457031 15.957031 Z M 36.339844 8.480469 L 37.960938 8.480469 L 32.621094 10.621094 Z M 23.847656 6.855469 L 38.300781 6.855469 L 36.222656 8.050781 L 24.539062 8.050781 L 20.160156 15.613281 L 18.355469 16.332031 Z M 18.007812 16.9375 L 19.808594 16.214844 L 18.699219 18.128906 L 16.621094 19.324219 Z M 18.265625 18.875 L 10.5625 32.164062 L 11.015625 28.996094 L 16.191406 20.066406 Z M 12.417969 19.175781 L 17.355469 17.195312 L 15.875 19.753906 L 12.019531 21.972656 Z M 11.941406 22.511719 L 15.445312 20.5 L 11.179688 27.855469 Z M 9.011719 24.199219 L 11.46875 22.785156 L 10.601562 28.855469 L 9.011719 31.59375 Z M 9.011719 32.457031 L 10.4375 29.996094 L 9.984375 33.164062 L 9.011719 34.84375 Z M 9.011719 35.703125 L 9.824219 34.304688 L 9.011719 39.980469 Z M 9.011719 43.035156 L 10.402344 33.304688 L 19.015625 18.445312 L 29.964844 12.148438 L 39.117188 8.480469 L 56.34375 8.480469 L 67.296875 14.777344 L 75.058594 20.839844 L 78.789062 27.277344 C 78.363281 27.109375 77.914062 27.152344 77.667969 27.703125 C 77.378906 28.359375 77.507812 29.28125 77.75 29.964844 C 77.882812 30.328125 78.050781 30.675781 78.25 30.984375 C 78.453125 31.296875 78.6875 31.5625 78.921875 31.835938 C 79.367188 32.359375 79.789062 32.859375 80.3125 33.21875 C 80.367188 33.84375 80.40625 34.46875 80.449219 35.097656 C 80.582031 37.160156 80.675781 39.230469 80.699219 41.300781 L 80.707031 43.027344 C 80.707031 43.605469 80.6875 44.179688 80.679688 44.757812 C 78.777344 43.207031 78 40.308594 77.269531 37.65625 C 77.636719 37.210938 77.933594 36.664062 78.167969 36.078125 C 78.429688 35.394531 78.558594 34.667969 78.503906 33.882812 C 78.4375 33.042969 78.1875 32.1875 77.765625 31.519531 C 77.566406 31.199219 77.300781 30.910156 76.976562 30.902344 C 76.664062 30.898438 76.433594 31.179688 76.285156 31.496094 C 76.101562 31.890625 76 32.359375 75.902344 32.800781 C 75.847656 33.050781 75.808594 33.300781 75.777344 33.554688 C 75.480469 33.1875 75.121094 32.90625 74.730469 32.738281 C 74.179688 32.5 73.417969 32.46875 73.199219 33.285156 C 73.015625 33.980469 73.253906 34.796875 73.566406 35.390625 C 73.921875 36.050781 74.414062 36.511719 74.953125 36.894531 C 75.550781 37.3125 76.171875 37.648438 76.832031 37.855469 C 77.007812 38.523438 77.195312 39.191406 77.394531 39.847656 C 77.589844 40.503906 77.816406 41.144531 78.066406 41.765625 C 77.050781 40.953125 75.773438 40.71875 74.589844 40.785156 C 74.066406 40.816406 73.546875 40.902344 73.03125 41 C 72.816406 41.042969 72.835938 41.414062 72.988281 41.535156 C 74.320312 42.613281 75.886719 43.300781 77.476562 43.484375 C 77.925781 43.535156 78.378906 43.542969 78.832031 43.507812 C 78.863281 43.503906 78.890625 43.496094 78.917969 43.484375 C 78.960938 43.554688 79.007812 43.628906 79.050781 43.703125 C 79.472656 44.375 79.996094 44.964844 80.570312 45.40625 C 80.601562 45.429688 80.628906 45.441406 80.660156 45.445312 C 80.636719 46.019531 80.621094 46.597656 80.585938 47.171875 L 80.476562 48.894531 C 80.257812 51.65625 79.886719 54.410156 79.308594 57.128906 C 78.722656 59.890625 77.941406 62.621094 76.898438 65.253906 C 75.941406 67.699219 74.78125 70.0625 73.429688 72.3125 C 73.210938 72.683594 72.984375 73.050781 72.75 73.417969 L 70.191406 74.886719 C 70.21875 74.738281 70.246094 74.589844 70.273438 74.441406 C 70.308594 74.230469 70.34375 74.023438 70.378906 73.8125 C 70.453125 73.394531 70.53125 72.980469 70.617188 72.570312 L 70.628906 72.511719 C 70.640625 72.488281 70.648438 72.460938 70.652344 72.4375 C 70.65625 72.40625 70.664062 72.375 70.667969 72.34375 C 70.738281 71.949219 70.816406 71.558594 70.902344 71.171875 C 70.984375 70.785156 71.082031 70.40625 71.160156 70.011719 C 71.320312 69.234375 71.519531 68.476562 71.675781 67.703125 C 72.105469 67.636719 72.523438 67.492188 72.933594 67.28125 C 73.328125 67.066406 73.707031 66.785156 74.070312 66.460938 C 74.25 66.296875 74.429688 66.121094 74.597656 65.9375 C 74.757812 65.746094 74.917969 65.550781 75.066406 65.34375 C 75.367188 64.933594 75.65625 64.5 75.882812 64.042969 C 76.1875 63.445312 76.472656 62.832031 76.695312 62.195312 C 76.792969 61.9375 76.566406 61.734375 76.378906 61.863281 C 74.847656 62.925781 73.4375 64.304688 72.25 65.859375 C 72.164062 65.972656 72.082031 66.085938 72 66.203125 C 72.089844 65.730469 72.195312 65.265625 72.269531 64.789062 C 72.339844 64.316406 72.410156 63.84375 72.472656 63.378906 C 74.0625 62.183594 75.363281 60.320312 75.996094 58.191406 C 76.273438 58.082031 76.546875 57.925781 76.8125 57.742188 C 76.945312 57.648438 77.074219 57.546875 77.199219 57.441406 C 77.320312 57.332031 77.441406 57.21875 77.554688 57.097656 C 78.046875 56.578125 78.453125 55.972656 78.660156 55.199219 C 78.777344 54.785156 78.863281 54.351562 78.878906 53.917969 C 78.890625 53.484375 78.859375 53.054688 78.769531 52.652344 C 78.695312 52.304688 78.527344 51.953125 78.246094 51.835938 C 77.929688 51.707031 77.613281 51.90625 77.363281 52.175781 C 76.929688 52.628906 76.566406 53.199219 76.265625 53.789062 C 76.125 53.355469 75.898438 52.972656 75.613281 52.671875 C 75.167969 52.203125 74.457031 51.863281 73.960938 52.511719 C 73.757812 52.773438 73.65625 53.121094 73.601562 53.476562 C 73.542969 53.828125 73.550781 54.199219 73.597656 54.519531 C 73.65625 54.882812 73.746094 55.214844 73.871094 55.53125 C 73.996094 55.84375 74.15625 56.140625 74.339844 56.429688 C 74.710938 57.015625 75.085938 57.542969 75.558594 58.003906 C 75.171875 59.351562 74.484375 60.601562 73.632812 61.617188 C 73.300781 62.015625 72.917969 62.371094 72.539062 62.695312 C 72.566406 62.359375 72.589844 62.027344 72.605469 61.699219 C 72.625 61.367188 72.613281 61.03125 72.609375 60.703125 C 72.601562 59.878906 72.5 59.058594 72.339844 58.28125 C 72.269531 57.894531 72.148438 57.503906 72.027344 57.132812 C 71.902344 56.757812 71.769531 56.398438 71.601562 56.046875 C 71.3125 55.441406 70.964844 54.882812 70.5625 54.394531 C 70.972656 53.117188 70.765625 51.664062 69.9375 50.703125 C 69.550781 50.253906 69.050781 49.875 68.5 49.734375 C 68.21875 49.667969 67.90625 49.695312 67.683594 49.925781 C 67.46875 50.15625 67.429688 50.476562 67.441406 50.785156 C 67.445312 51.335938 67.570312 51.902344 67.746094 52.433594 C 67.335938 52.324219 66.898438 52.320312 66.480469 52.421875 C 66.183594 52.492188 65.886719 52.605469 65.660156 52.820312 C 65.421875 53.046875 65.355469 53.371094 65.417969 53.679688 C 65.539062 54.242188 66.054688 54.703125 66.546875 54.964844 C 67.0625 55.234375 67.640625 55.34375 68.21875 55.324219 C 68.914062 55.296875 69.597656 55.085938 70.269531 54.847656 C 70.539062 55.1875 70.78125 55.558594 70.996094 55.957031 C 71.28125 56.496094 71.503906 57.070312 71.6875 57.683594 C 71.863281 58.289062 71.976562 58.917969 72.058594 59.566406 C 71.417969 58.371094 70.304688 57.640625 69.132812 57.210938 C 68.648438 57.03125 68.148438 56.898438 67.644531 56.78125 C 67.460938 56.738281 67.25 56.960938 67.367188 57.144531 C 68.269531 58.523438 69.429688 59.726562 70.828125 60.566406 C 71.226562 60.808594 71.644531 61.015625 72.074219 61.1875 C 72.097656 61.195312 72.117188 61.199219 72.140625 61.199219 C 72.128906 61.867188 72.082031 62.542969 72.011719 63.226562 C 72.007812 63.238281 72.007812 63.25 72.007812 63.265625 C 71.941406 63.75 71.871094 64.242188 71.796875 64.738281 C 71.707031 65.226562 71.605469 65.710938 71.511719 66.203125 C 71.449219 66.5625 71.359375 66.90625 71.285156 67.257812 C 71.257812 67.304688 71.246094 67.359375 71.25 67.410156 C 71.195312 67.664062 71.140625 67.917969 71.085938 68.171875 C 71.03125 68.429688 70.964844 68.675781 70.90625 68.929688 C 70.847656 69.183594 70.789062 69.4375 70.734375 69.695312 C 70.679688 69.953125 70.625 70.210938 70.5625 70.460938 C 70.421875 69.914062 70.152344 69.40625 69.84375 68.960938 C 69.527344 68.515625 69.152344 68.125 68.75 67.792969 C 68.347656 67.464844 67.921875 67.171875 67.484375 66.898438 C 67.308594 66.789062 67.074219 67.007812 67.121094 67.210938 C 67.210938 67.625 67.335938 68.046875 67.460938 68.445312 C 67.585938 68.84375 67.738281 69.238281 67.910156 69.625 C 68.25 70.394531 68.679688 71.125 69.175781 71.765625 C 69.449219 72.121094 69.75 72.449219 70.074219 72.75 C 69.992188 73.164062 69.914062 73.582031 69.84375 74.003906 C 69.769531 74.40625 69.691406 74.808594 69.625 75.214844 L 62.722656 79.183594 L 53.566406 82.851562 L 36.339844 82.851562 L 25.390625 76.554688 L 17.625 70.492188 L 9.011719 55.628906 Z M 77.242188 31.664062 C 77.308594 31.738281 77.367188 31.828125 77.410156 31.902344 C 77.75 32.457031 77.953125 33.128906 78.023438 33.816406 C 78.085938 34.472656 77.996094 35.078125 77.789062 35.664062 C 77.648438 36.0625 77.460938 36.453125 77.242188 36.800781 C 77.277344 35.09375 77.269531 33.382812 77.242188 31.664062 Z M 74.019531 33.179688 C 74.171875 33.167969 74.339844 33.214844 74.480469 33.261719 C 75 33.4375 75.464844 33.875 75.761719 34.453125 C 75.78125 34.488281 75.804688 34.515625 75.828125 34.535156 C 76.070312 35.210938 76.292969 35.910156 76.488281 36.613281 C 75.511719 35.671875 74.675781 34.503906 74.019531 33.179688 Z M 76 36.878906 C 75.828125 36.789062 75.65625 36.6875 75.484375 36.578125 C 75.023438 36.28125 74.574219 35.957031 74.210938 35.472656 C 73.886719 35.039062 73.640625 34.464844 73.609375 33.863281 C 73.605469 33.753906 73.613281 33.628906 73.640625 33.523438 C 73.960938 34.164062 74.316406 34.765625 74.710938 35.328125 C 75.109375 35.886719 75.539062 36.40625 76 36.878906 Z M 76.203125 34.148438 C 76.246094 33.472656 76.367188 32.816406 76.5625 32.191406 C 76.613281 32.039062 76.671875 31.820312 76.769531 31.675781 C 76.796875 33.097656 76.796875 34.511719 76.785156 35.921875 C 76.605469 35.324219 76.417969 34.730469 76.203125 34.148438 Z M 74.503906 41.386719 C 75.640625 41.316406 76.792969 41.476562 77.78125 42.257812 L 77.824219 42.292969 C 76.730469 41.902344 75.625 41.605469 74.503906 41.386719 Z M 77.753906 42.898438 C 76.71875 42.824219 75.695312 42.523438 74.742188 42.027344 C 75.753906 42.246094 76.761719 42.535156 77.753906 42.898438 Z M 62.910156 79.574219 L 69.347656 76.996094 C 69.308594 77.246094 69.269531 77.496094 69.234375 77.75 C 69.210938 77.941406 69.1875 78.136719 69.164062 78.332031 C 68.730469 78.859375 68.269531 79.363281 67.824219 79.882812 C 67.375 80.394531 66.894531 80.875 66.429688 81.375 C 66.171875 81.652344 65.898438 81.914062 65.625 82.175781 C 65.394531 82.398438 65.164062 82.625 64.9375 82.851562 L 57.207031 82.851562 Z M 56.34375 82.851562 L 54.722656 82.851562 L 60.066406 80.710938 Z M 65.566406 78.046875 L 69.539062 75.761719 C 69.5 76.011719 69.464844 76.257812 69.421875 76.5 Z M 66.214844 82.28125 C 66.472656 82.039062 66.710938 81.773438 66.957031 81.515625 L 67.691406 80.742188 C 67.941406 80.488281 68.171875 80.21875 68.40625 79.949219 L 69.109375 79.144531 C 69.453125 78.765625 69.757812 78.355469 70.082031 77.960938 C 70.398438 77.5625 70.726562 77.167969 71.023438 76.75 L 71.46875 76.144531 L 71.878906 75.980469 L 67.894531 82.851562 L 65.628906 82.851562 Z M 69.78125 77.5625 C 69.816406 77.296875 69.859375 77.035156 69.898438 76.773438 L 70.613281 76.488281 C 70.339844 76.847656 70.0625 77.207031 69.78125 77.5625 Z M 71.101562 75.828125 L 69.972656 76.28125 C 70.011719 76 70.058594 75.71875 70.101562 75.4375 L 72.234375 74.210938 C 71.871094 74.757812 71.492188 75.296875 71.101562 75.828125 Z M 68.597656 68.390625 C 68.976562 68.734375 69.320312 69.121094 69.59375 69.5625 C 69.859375 70.003906 70.058594 70.5 70.152344 71.070312 C 70.164062 71.144531 70.171875 71.214844 70.179688 71.289062 C 69.742188 70.246094 69.226562 69.289062 68.597656 68.390625 Z M 69.644531 71.4375 C 68.941406 70.570312 68.402344 69.558594 68.019531 68.484375 C 68.652344 69.390625 69.1875 70.367188 69.644531 71.4375 Z M 72.785156 74.246094 C 72.8125 74.253906 72.84375 74.261719 72.867188 74.273438 L 72.226562 75.378906 L 71.949219 75.488281 Z M 74.011719 65.480469 C 74.242188 65.230469 74.472656 64.984375 74.703125 64.738281 C 74.933594 64.488281 75.164062 64.238281 75.378906 63.976562 C 75.226562 64.269531 75.046875 64.550781 74.859375 64.820312 C 74.671875 65.085938 74.472656 65.34375 74.265625 65.582031 C 73.847656 66.058594 73.355469 66.453125 72.832031 66.746094 C 72.75 66.792969 72.664062 66.832031 72.582031 66.871094 C 73.054688 66.421875 73.550781 65.964844 74.011719 65.480469 Z M 72.621094 66.164062 C 72.8125 65.910156 73.019531 65.664062 73.230469 65.421875 C 73.429688 65.179688 73.636719 64.941406 73.855469 64.710938 C 74.074219 64.480469 74.296875 64.257812 74.527344 64.042969 C 74.75 63.824219 74.980469 63.613281 75.214844 63.410156 C 75.007812 63.65625 74.804688 63.898438 74.597656 64.136719 C 74.378906 64.371094 74.164062 64.601562 73.945312 64.835938 C 73.730469 65.0625 73.515625 65.292969 73.296875 65.515625 C 73.074219 65.730469 72.847656 65.945312 72.621094 66.164062 Z M 74.460938 52.859375 C 74.476562 53.042969 74.5 53.230469 74.523438 53.414062 C 74.546875 53.597656 74.570312 53.777344 74.597656 53.960938 C 74.65625 54.324219 74.730469 54.683594 74.820312 55.039062 C 74.984375 55.746094 75.195312 56.429688 75.472656 57.09375 C 75.296875 56.886719 75.125 56.667969 74.96875 56.4375 C 74.648438 55.972656 74.347656 55.492188 74.183594 54.917969 C 74.023438 54.394531 73.964844 53.773438 74.148438 53.222656 C 74.207031 53.03125 74.300781 52.820312 74.464844 52.746094 C 74.457031 52.78125 74.457031 52.816406 74.460938 52.859375 Z M 74.9375 52.828125 C 75.023438 52.878906 75.101562 52.945312 75.167969 53.007812 C 75.375 53.1875 75.550781 53.417969 75.683594 53.683594 C 75.8125 53.945312 75.898438 54.246094 75.933594 54.5625 C 75.9375 54.589844 75.945312 54.613281 75.953125 54.636719 C 76.003906 55.316406 75.953125 55.996094 75.855469 56.675781 C 75.375 55.476562 75.070312 54.179688 74.9375 52.828125 Z M 76.429688 54.542969 C 76.566406 54.242188 76.730469 53.949219 76.898438 53.667969 C 77.0625 53.386719 77.246094 53.121094 77.441406 52.867188 C 77.5625 52.714844 77.738281 52.476562 77.917969 52.414062 C 77.902344 52.449219 77.890625 52.488281 77.878906 52.527344 C 77.710938 53.242188 77.519531 53.949219 77.25 54.625 C 77.121094 54.964844 76.988281 55.296875 76.839844 55.625 C 76.683594 55.945312 76.519531 56.265625 76.351562 56.574219 C 76.394531 56.234375 76.429688 55.894531 76.445312 55.558594 C 76.457031 55.21875 76.449219 54.878906 76.429688 54.542969 Z M 78.296875 52.800781 C 78.304688 52.839844 78.3125 52.871094 78.320312 52.902344 C 78.394531 53.234375 78.421875 53.59375 78.40625 53.953125 C 78.386719 54.3125 78.320312 54.675781 78.226562 55.011719 C 78.140625 55.320312 78.027344 55.605469 77.875 55.867188 C 77.722656 56.125 77.546875 56.359375 77.347656 56.574219 C 77.078125 56.863281 76.785156 57.121094 76.476562 57.328125 C 77.28125 55.960938 77.929688 54.429688 78.296875 52.800781 Z M 68.035156 53.089844 C 68.058594 53.117188 68.085938 53.144531 68.128906 53.164062 C 68.597656 53.371094 69.03125 53.644531 69.429688 53.976562 C 68.257812 53.773438 67.09375 53.519531 65.941406 53.222656 C 66.054688 53.066406 66.257812 52.992188 66.429688 52.933594 C 66.964844 52.765625 67.546875 52.824219 68.035156 53.089844 Z M 67.90625 50.742188 C 68.21875 51.140625 68.5 51.550781 68.769531 51.992188 C 69.039062 52.429688 69.269531 52.886719 69.476562 53.359375 C 69.257812 53.199219 69.03125 53.050781 68.796875 52.921875 C 68.652344 52.847656 68.507812 52.777344 68.359375 52.710938 C 68.164062 52.210938 68.003906 51.671875 67.945312 51.125 C 67.929688 51.007812 67.914062 50.875 67.90625 50.742188 Z M 69.601562 54.535156 C 68.773438 54.796875 67.925781 54.945312 67.105469 54.675781 C 66.683594 54.535156 66.277344 54.265625 66.027344 53.890625 C 65.992188 53.839844 65.957031 53.777344 65.925781 53.714844 C 67.140625 54.039062 68.363281 54.316406 69.601562 54.535156 Z M 69.3125 51.949219 C 69.136719 51.644531 68.949219 51.347656 68.753906 51.0625 C 68.558594 50.777344 68.339844 50.496094 68.121094 50.230469 C 68.203125 50.207031 68.300781 50.214844 68.386719 50.238281 C 68.816406 50.347656 69.226562 50.660156 69.53125 51 C 69.867188 51.378906 70.105469 51.855469 70.226562 52.378906 C 70.34375 52.875 70.316406 53.390625 70.210938 53.890625 C 69.960938 53.210938 69.671875 52.566406 69.3125 51.949219 Z M 68.960938 57.695312 C 69.972656 58.078125 70.925781 58.660156 71.53125 59.667969 L 71.566406 59.726562 C 70.761719 58.960938 69.875 58.277344 68.960938 57.695312 Z M 71.304688 60.21875 C 70.351562 59.695312 69.515625 59.003906 68.769531 58.175781 C 69.21875 58.472656 69.664062 58.792969 70.085938 59.132812 C 70.507812 59.46875 70.914062 59.832031 71.304688 60.21875 Z M 52.492188 83.28125 L 49.511719 84.476562 L 39.164062 84.476562 L 37.085938 83.28125 Z M 25.148438 76.910156 L 32.753906 82.851562 L 24.789062 82.851562 L 19.445312 73.632812 Z M 19.015625 72.886719 L 18.203125 71.488281 L 22.734375 75.027344 Z M 27.804688 78.4375 L 35.476562 82.851562 L 33.453125 82.851562 Z M 9.011719 56.492188 L 16.714844 69.78125 L 14.1875 67.804688 L 9.011719 58.878906 Z M 9.011719 59.738281 L 13.277344 67.09375 L 9.011719 63.765625 Z M 9.011719 67.136719 L 9.011719 64.3125 L 13.855469 68.09375 L 15.445312 70.835938 Z M 14.765625 68.804688 L 17.292969 70.777344 L 18.265625 72.457031 L 16.191406 71.265625 Z M 23.847656 84.476562 L 16.625 72.007812 L 18.699219 73.203125 L 24.476562 83.175781 L 24.539062 83.28125 L 33.304688 83.28125 L 34.832031 84.476562 Z M 34.003906 83.28125 L 36.222656 83.28125 L 38.300781 84.476562 L 35.535156 84.476562 Z M 40.273438 88.175781 L 36.085938 84.90625 L 39.046875 84.90625 L 42.902344 87.125 Z M 39.910156 84.90625 L 48.4375 84.90625 L 43.410156 86.917969 Z M 46.34375 88.605469 L 43.886719 87.191406 L 49.597656 84.90625 L 52.773438 84.90625 Z M 53.523438 84.476562 L 50.671875 84.476562 L 53.652344 83.28125 L 55.597656 83.28125 Z M 68.835938 84.476562 L 54.386719 84.476562 L 56.460938 83.28125 L 64.632812 83.28125 C 64.632812 83.476562 64.863281 83.597656 65.082031 83.386719 L 65.1875 83.28125 L 68.144531 83.28125 L 72.527344 75.722656 L 74.328125 75 Z M 74.679688 74.394531 L 72.878906 75.117188 L 73.300781 74.386719 C 73.539062 74.433594 73.785156 74.453125 74.035156 74.445312 C 74.253906 74.4375 74.476562 74.40625 74.699219 74.359375 Z M 74.238281 73.828125 C 74.15625 73.832031 74.078125 73.835938 74 73.835938 C 74.613281 73.640625 75.238281 73.414062 75.863281 73.148438 C 76.472656 72.871094 77.082031 72.558594 77.695312 72.210938 C 77.140625 72.65625 76.578125 73.046875 76 73.332031 C 75.410156 73.609375 74.820312 73.785156 74.238281 73.828125 Z M 80.265625 72.15625 L 76.492188 73.667969 C 76.574219 73.625 76.660156 73.578125 76.738281 73.53125 C 77.183594 73.253906 77.617188 72.9375 78.035156 72.589844 C 78.5625 72.167969 79.027344 71.671875 79.507812 71.171875 C 79.742188 70.921875 79.699219 70.566406 79.429688 70.601562 C 78.941406 70.667969 78.453125 70.777344 77.960938 70.917969 L 80.664062 69.363281 Z M 80.742188 68.820312 L 77.242188 70.835938 L 81.503906 63.476562 Z M 83.671875 67.136719 L 81.21875 68.546875 L 82.085938 62.480469 L 82.21875 62.246094 C 82.648438 62.769531 83.144531 63.195312 83.671875 63.527344 Z M 81.890625 60.613281 C 81.878906 60.582031 81.867188 60.554688 81.855469 60.527344 C 82.566406 61.382812 83.316406 62.199219 84.097656 62.972656 C 83.195312 62.46875 82.390625 61.734375 81.890625 60.613281 Z M 84.65625 62.597656 C 83.785156 61.773438 82.980469 60.890625 82.167969 59.957031 C 82.660156 60.253906 83.128906 60.621094 83.546875 61.0625 C 83.960938 61.503906 84.332031 62.015625 84.65625 62.597656 Z M 83.078125 50.894531 C 82.667969 51.351562 82.21875 51.726562 81.71875 51.992188 C 81.609375 52.046875 81.5 52.097656 81.390625 52.140625 C 81.875 51.722656 82.355469 51.28125 82.820312 50.808594 C 83.277344 50.339844 83.722656 49.839844 84.160156 49.316406 C 83.835938 49.898438 83.476562 50.433594 83.078125 50.894531 Z M 84.398438 57.625 C 84.300781 57.652344 84.203125 57.679688 84.105469 57.707031 L 84.105469 57.644531 C 84.242188 57.519531 84.375 57.390625 84.507812 57.253906 C 84.605469 57.152344 84.703125 57.046875 84.796875 56.941406 Z M 87.90625 54.589844 C 88.007812 54.242188 88.128906 53.914062 88.273438 53.605469 C 88.414062 53.296875 88.570312 53.011719 88.765625 52.757812 C 89.179688 52.21875 89.675781 51.816406 90.199219 51.621094 C 90.285156 51.589844 90.375 51.554688 90.472656 51.53125 C 89.484375 52.402344 88.609375 53.523438 87.835938 54.820312 C 87.859375 54.742188 87.882812 54.667969 87.90625 54.589844 Z M 89.269531 53.65625 C 89.804688 52.964844 90.394531 52.359375 91.023438 51.859375 C 91.03125 52.011719 91 52.183594 90.964844 52.328125 C 90.851562 52.78125 90.695312 53.21875 90.515625 53.632812 C 90.328125 54.046875 90.105469 54.441406 89.878906 54.796875 C 89.167969 55.167969 88.484375 55.570312 87.769531 55.980469 C 88.226562 55.132812 88.710938 54.355469 89.269531 53.65625 Z M 91.558594 57.511719 C 91.171875 58.007812 90.667969 58.207031 90.214844 58.214844 C 89.695312 58.222656 89.253906 57.972656 88.808594 57.6875 C 88.507812 57.492188 88.21875 57.265625 87.949219 57.007812 C 88.476562 57.117188 89.027344 57.085938 89.582031 57.039062 C 90.296875 56.980469 91.042969 56.902344 91.691406 57.253906 C 91.699219 57.257812 91.707031 57.261719 91.714844 57.261719 C 91.671875 57.351562 91.617188 57.4375 91.558594 57.511719 Z M 89.75 56.304688 C 89.292969 56.34375 88.824219 56.398438 88.375 56.351562 L 88.527344 56.261719 C 88.972656 56.007812 89.425781 55.769531 89.863281 55.539062 C 89.890625 55.550781 89.921875 55.554688 89.953125 55.546875 C 90.453125 55.414062 90.960938 55.535156 91.363281 55.917969 C 91.507812 56.054688 91.660156 56.234375 91.75 56.464844 C 91.121094 56.199219 90.433594 56.242188 89.75 56.304688 Z M 89.75 56.304688 " clip-rule="nonzero"/></clipPath><linearGradient x1="0" gradientTransform="matrix(0.18291, 0, 0, 0.1822, 0.856323, 2.231626)" y1="238.39101" x2="500.100039" gradientUnits="userSpaceOnUse" y2="238.39101" id="9417378140"><stop stop-opacity="1" stop-color="rgb(86.268616%, 70.588684%, 35.289001%)" offset="0"/><stop stop-opacity="1" stop-color="rgb(85.919189%, 70.239258%, 34.953308%)" offset="0.00390625"/><stop stop-opacity="1" stop-color="rgb(85.569763%, 69.889832%, 34.617615%)" offset="0.0078125"/><stop stop-opacity="1" stop-color="rgb(85.220337%, 69.540405%, 34.281921%)" offset="0.0117188"/><stop stop-opacity="1" stop-color="rgb(84.870911%, 69.190979%, 33.946228%)" offset="0.015625"/><stop stop-opacity="1" stop-color="rgb(84.521484%, 68.841553%, 33.609009%)" offset="0.0195312"/><stop stop-opacity="1" stop-color="rgb(84.172058%, 68.492126%, 33.273315%)" offset="0.0234375"/><stop stop-opacity="1" stop-color="rgb(83.822632%, 68.1427%, 32.937622%)" offset="0.0273438"/><stop stop-opacity="1" stop-color="rgb(83.474731%, 67.793274%, 32.601929%)" offset="0.03125"/><stop stop-opacity="1" stop-color="rgb(83.125305%, 67.443848%, 32.266235%)" offset="0.0351562"/><stop stop-opacity="1" stop-color="rgb(82.775879%, 67.095947%, 31.930542%)" offset="0.0390625"/><stop stop-opacity="1" stop-color="rgb(82.426453%, 66.746521%, 31.594849%)" offset="0.0429688"/><stop stop-opacity="1" stop-color="rgb(82.077026%, 66.397095%, 31.259155%)" offset="0.046875"/><stop stop-opacity="1" stop-color="rgb(81.7276%, 66.047668%, 30.923462%)" offset="0.0507812"/><stop stop-opacity="1" stop-color="rgb(81.378174%, 65.698242%, 30.587769%)" offset="0.0546875"/><stop stop-opacity="1" stop-color="rgb(81.028748%, 65.348816%, 30.250549%)" offset="0.0585938"/><stop stop-opacity="1" stop-color="rgb(80.679321%, 64.99939%, 29.914856%)" offset="0.0625"/><stop stop-opacity="1" stop-color="rgb(80.329895%, 64.649963%, 29.579163%)" offset="0.0664062"/><stop stop-opacity="1" stop-color="rgb(79.980469%, 64.300537%, 29.243469%)" offset="0.0703125"/><stop stop-opacity="1" stop-color="rgb(79.631042%, 63.951111%, 28.907776%)" offset="0.0742188"/><stop stop-opacity="1" stop-color="rgb(79.281616%, 63.601685%, 28.572083%)" offset="0.078125"/><stop stop-opacity="1" stop-color="rgb(78.93219%, 63.252258%, 28.236389%)" offset="0.0820312"/><stop stop-opacity="1" stop-color="rgb(78.582764%, 62.902832%, 27.900696%)" offset="0.0859375"/><stop stop-opacity="1" stop-color="rgb(78.233337%, 62.553406%, 27.563477%)" offset="0.0898438"/><stop stop-opacity="1" stop-color="rgb(77.883911%, 62.203979%, 27.227783%)" offset="0.09375"/><stop stop-opacity="1" stop-color="rgb(77.534485%, 61.854553%, 26.89209%)" offset="0.0976562"/><stop stop-opacity="1" stop-color="rgb(77.185059%, 61.505127%, 26.556396%)" offset="0.101562"/><stop stop-opacity="1" stop-color="rgb(76.835632%, 61.155701%, 26.220703%)" offset="0.105469"/><stop stop-opacity="1" stop-color="rgb(76.486206%, 60.806274%, 25.88501%)" offset="0.109375"/><stop stop-opacity="1" stop-color="rgb(76.13678%, 60.456848%, 25.549316%)" offset="0.113281"/><stop stop-opacity="1" stop-color="rgb(75.787354%, 60.107422%, 25.213623%)" offset="0.117188"/><stop stop-opacity="1" stop-color="rgb(75.437927%, 59.757996%, 24.876404%)" offset="0.121094"/><stop stop-opacity="1" stop-color="rgb(75.088501%, 59.408569%, 24.54071%)" offset="0.125"/><stop stop-opacity="1" stop-color="rgb(74.739075%, 59.059143%, 24.205017%)" offset="0.128906"/><stop stop-opacity="1" stop-color="rgb(74.389648%, 58.709717%, 23.869324%)" offset="0.132812"/><stop stop-opacity="1" stop-color="rgb(74.040222%, 58.360291%, 23.53363%)" offset="0.136719"/><stop stop-opacity="1" stop-color="rgb(73.690796%, 58.010864%, 23.197937%)" offset="0.140625"/><stop stop-opacity="1" stop-color="rgb(73.34137%, 57.661438%, 22.862244%)" offset="0.144531"/><stop stop-opacity="1" stop-color="rgb(72.991943%, 57.312012%, 22.52655%)" offset="0.148438"/><stop stop-opacity="1" stop-color="rgb(72.642517%, 56.962585%, 22.190857%)" offset="0.152344"/><stop stop-opacity="1" stop-color="rgb(72.293091%, 56.613159%, 21.855164%)" offset="0.15625"/><stop stop-opacity="1" stop-color="rgb(71.943665%, 56.263733%, 21.517944%)" offset="0.160156"/><stop stop-opacity="1" stop-color="rgb(71.594238%, 55.914307%, 21.182251%)" offset="0.164062"/><stop stop-opacity="1" stop-color="rgb(71.244812%, 55.56488%, 20.846558%)" offset="0.167969"/><stop stop-opacity="1" stop-color="rgb(70.895386%, 55.215454%, 20.510864%)" offset="0.171875"/><stop stop-opacity="1" stop-color="rgb(70.545959%, 54.866028%, 20.175171%)" offset="0.175781"/><stop stop-opacity="1" stop-color="rgb(70.196533%, 54.516602%, 19.839478%)" offset="0.179688"/><stop stop-opacity="1" stop-color="rgb(69.847107%, 54.167175%, 19.503784%)" offset="0.183594"/><stop stop-opacity="1" stop-color="rgb(69.497681%, 53.817749%, 19.168091%)" offset="0.1875"/><stop stop-opacity="1" stop-color="rgb(69.148254%, 53.468323%, 18.830872%)" offset="0.191406"/><stop stop-opacity="1" stop-color="rgb(68.798828%, 53.118896%, 18.495178%)" offset="0.195312"/><stop stop-opacity="1" stop-color="rgb(68.449402%, 52.76947%, 18.159485%)" offset="0.199219"/><stop stop-opacity="1" stop-color="rgb(68.099976%, 52.420044%, 17.823792%)" offset="0.203125"/><stop stop-opacity="1" stop-color="rgb(67.750549%, 52.070618%, 17.488098%)" offset="0.207031"/><stop stop-opacity="1" stop-color="rgb(67.401123%, 51.721191%, 17.152405%)" offset="0.210938"/><stop stop-opacity="1" stop-color="rgb(67.051697%, 51.371765%, 16.816711%)" offset="0.214844"/><stop stop-opacity="1" stop-color="rgb(66.702271%, 51.022339%, 16.481018%)" offset="0.21875"/><stop stop-opacity="1" stop-color="rgb(66.352844%, 50.672913%, 16.145325%)" offset="0.222656"/><stop stop-opacity="1" stop-color="rgb(66.003418%, 50.323486%, 15.809631%)" offset="0.226562"/><stop stop-opacity="1" stop-color="rgb(66.151428%, 50.483704%, 16.00647%)" offset="0.230469"/><stop stop-opacity="1" stop-color="rgb(66.299438%, 50.645447%, 16.203308%)" offset="0.234375"/><stop stop-opacity="1" stop-color="rgb(66.55426%, 50.917053%, 16.516113%)" offset="0.238281"/><stop stop-opacity="1" stop-color="rgb(66.810608%, 51.190186%, 16.828918%)" offset="0.242188"/><stop stop-opacity="1" stop-color="rgb(67.06543%, 51.461792%, 17.141724%)" offset="0.246094"/><stop stop-opacity="1" stop-color="rgb(67.320251%, 51.733398%, 17.456055%)" offset="0.25"/><stop stop-opacity="1" stop-color="rgb(67.575073%, 52.005005%, 17.76886%)" offset="0.253906"/><stop stop-opacity="1" stop-color="rgb(67.831421%, 52.276611%, 18.081665%)" offset="0.257812"/><stop stop-opacity="1" stop-color="rgb(68.086243%, 52.548218%, 18.39447%)" offset="0.261719"/><stop stop-opacity="1" stop-color="rgb(68.34259%, 52.819824%, 18.707275%)" offset="0.265625"/><stop stop-opacity="1" stop-color="rgb(68.597412%, 53.091431%, 19.020081%)" offset="0.269531"/><stop stop-opacity="1" stop-color="rgb(68.85376%, 53.364563%, 19.332886%)" offset="0.273438"/><stop stop-opacity="1" stop-color="rgb(69.108582%, 53.636169%, 19.645691%)" offset="0.277344"/><stop stop-opacity="1" stop-color="rgb(69.364929%, 53.907776%, 19.960022%)" offset="0.28125"/><stop stop-opacity="1" stop-color="rgb(69.619751%, 54.179382%, 20.272827%)" offset="0.285156"/><stop stop-opacity="1" stop-color="rgb(69.874573%, 54.450989%, 20.585632%)" offset="0.289062"/><stop stop-opacity="1" stop-color="rgb(70.129395%, 54.722595%, 20.898438%)" offset="0.292969"/><stop stop-opacity="1" stop-color="rgb(70.385742%, 54.995728%, 21.211243%)" offset="0.296875"/><stop stop-opacity="1" stop-color="rgb(70.640564%, 55.267334%, 21.524048%)" offset="0.300781"/><stop stop-opacity="1" stop-color="rgb(70.896912%, 55.53894%, 21.836853%)" offset="0.304688"/><stop stop-opacity="1" stop-color="rgb(71.151733%, 55.810547%, 22.149658%)" offset="0.308594"/><stop stop-opacity="1" stop-color="rgb(71.408081%, 56.082153%, 22.463989%)" offset="0.3125"/><stop stop-opacity="1" stop-color="rgb(71.662903%, 56.35376%, 22.776794%)" offset="0.316406"/><stop stop-opacity="1" stop-color="rgb(71.917725%, 56.625366%, 23.0896%)" offset="0.320312"/><stop stop-opacity="1" stop-color="rgb(72.172546%, 56.896973%, 23.402405%)" offset="0.324219"/><stop stop-opacity="1" stop-color="rgb(72.428894%, 57.170105%, 23.71521%)" offset="0.328125"/><stop stop-opacity="1" stop-color="rgb(72.683716%, 57.441711%, 24.028015%)" offset="0.332031"/><stop stop-opacity="1" stop-color="rgb(72.940063%, 57.713318%, 24.34082%)" offset="0.335938"/><stop stop-opacity="1" stop-color="rgb(73.194885%, 57.984924%, 24.653625%)" offset="0.339844"/><stop stop-opacity="1" stop-color="rgb(73.451233%, 58.256531%, 24.966431%)" offset="0.34375"/><stop stop-opacity="1" stop-color="rgb(73.706055%, 58.528137%, 25.279236%)" offset="0.347656"/><stop stop-opacity="1" stop-color="rgb(73.962402%, 58.799744%, 25.593567%)" offset="0.351562"/><stop stop-opacity="1" stop-color="rgb(74.217224%, 59.07135%, 25.906372%)" offset="0.355469"/><stop stop-opacity="1" stop-color="rgb(74.472046%, 59.344482%, 26.219177%)" offset="0.359375"/><stop stop-opacity="1" stop-color="rgb(74.726868%, 59.616089%, 26.531982%)" offset="0.363281"/><stop stop-opacity="1" stop-color="rgb(74.983215%, 59.887695%, 26.844788%)" offset="0.367188"/><stop stop-opacity="1" stop-color="rgb(75.238037%, 60.159302%, 27.157593%)" offset="0.371094"/><stop stop-opacity="1" stop-color="rgb(75.494385%, 60.430908%, 27.470398%)" offset="0.375"/><stop stop-opacity="1" stop-color="rgb(75.749207%, 60.702515%, 27.783203%)" offset="0.378906"/><stop stop-opacity="1" stop-color="rgb(76.005554%, 60.974121%, 28.097534%)" offset="0.382812"/><stop stop-opacity="1" stop-color="rgb(76.260376%, 61.245728%, 28.410339%)" offset="0.386719"/><stop stop-opacity="1" stop-color="rgb(76.516724%, 61.51886%, 28.723145%)" offset="0.390625"/><stop stop-opacity="1" stop-color="rgb(76.771545%, 61.790466%, 29.03595%)" offset="0.394531"/><stop stop-opacity="1" stop-color="rgb(77.026367%, 62.062073%, 29.348755%)" offset="0.398438"/><stop stop-opacity="1" stop-color="rgb(77.281189%, 62.333679%, 29.66156%)" offset="0.402344"/><stop stop-opacity="1" stop-color="rgb(77.537537%, 62.605286%, 29.974365%)" offset="0.40625"/><stop stop-opacity="1" stop-color="rgb(77.784729%, 62.867737%, 30.271912%)" offset="0.410156"/><stop stop-opacity="1" stop-color="rgb(78.031921%, 63.130188%, 30.570984%)" offset="0.414062"/><stop stop-opacity="1" stop-color="rgb(77.844238%, 62.870789%, 30.072021%)" offset="0.417969"/><stop stop-opacity="1" stop-color="rgb(77.658081%, 62.612915%, 29.573059%)" offset="0.421875"/><stop stop-opacity="1" stop-color="rgb(77.470398%, 62.353516%, 29.074097%)" offset="0.425781"/><stop stop-opacity="1" stop-color="rgb(77.284241%, 62.095642%, 28.575134%)" offset="0.429688"/><stop stop-opacity="1" stop-color="rgb(77.096558%, 61.836243%, 28.076172%)" offset="0.433594"/><stop stop-opacity="1" stop-color="rgb(76.908875%, 61.578369%, 27.577209%)" offset="0.4375"/><stop stop-opacity="1" stop-color="rgb(76.721191%, 61.31897%, 27.078247%)" offset="0.441406"/><stop stop-opacity="1" stop-color="rgb(76.535034%, 61.061096%, 26.580811%)" offset="0.445312"/><stop stop-opacity="1" stop-color="rgb(76.347351%, 60.803223%, 26.081848%)" offset="0.449219"/><stop stop-opacity="1" stop-color="rgb(76.161194%, 60.545349%, 25.582886%)" offset="0.453125"/><stop stop-opacity="1" stop-color="rgb(75.973511%, 60.28595%, 25.083923%)" offset="0.457031"/><stop stop-opacity="1" stop-color="rgb(75.785828%, 60.028076%, 24.584961%)" offset="0.460938"/><stop stop-opacity="1" stop-color="rgb(75.598145%, 59.768677%, 24.085999%)" offset="0.464844"/><stop stop-opacity="1" stop-color="rgb(75.411987%, 59.510803%, 23.587036%)" offset="0.46875"/><stop stop-opacity="1" stop-color="rgb(75.224304%, 59.251404%, 23.088074%)" offset="0.472656"/><stop stop-opacity="1" stop-color="rgb(75.038147%, 58.99353%, 22.589111%)" offset="0.476562"/><stop stop-opacity="1" stop-color="rgb(74.850464%, 58.734131%, 22.090149%)" offset="0.480469"/><stop stop-opacity="1" stop-color="rgb(74.662781%, 58.476257%, 21.591187%)" offset="0.484375"/><stop stop-opacity="1" stop-color="rgb(74.475098%, 58.216858%, 21.092224%)" offset="0.488281"/><stop stop-opacity="1" stop-color="rgb(74.28894%, 57.958984%, 20.594788%)" offset="0.492188"/><stop stop-opacity="1" stop-color="rgb(74.101257%, 57.701111%, 20.095825%)" offset="0.496094"/><stop stop-opacity="1" stop-color="rgb(73.9151%, 57.443237%, 19.596863%)" offset="0.5"/><stop stop-opacity="1" stop-color="rgb(73.727417%, 57.183838%, 19.0979%)" offset="0.503906"/><stop stop-opacity="1" stop-color="rgb(73.539734%, 56.925964%, 18.598938%)" offset="0.507812"/><stop stop-opacity="1" stop-color="rgb(73.352051%, 56.666565%, 18.099976%)" offset="0.511719"/><stop stop-opacity="1" stop-color="rgb(73.165894%, 56.408691%, 17.601013%)" offset="0.515625"/><stop stop-opacity="1" stop-color="rgb(72.97821%, 56.149292%, 17.102051%)" offset="0.519531"/><stop stop-opacity="1" stop-color="rgb(72.792053%, 55.891418%, 16.603088%)" offset="0.523437"/><stop stop-opacity="1" stop-color="rgb(72.60437%, 55.632019%, 16.104126%)" offset="0.527344"/><stop stop-opacity="1" stop-color="rgb(72.416687%, 55.374146%, 15.605164%)" offset="0.53125"/><stop stop-opacity="1" stop-color="rgb(72.229004%, 55.114746%, 15.106201%)" offset="0.535156"/><stop stop-opacity="1" stop-color="rgb(72.042847%, 54.856873%, 14.608765%)" offset="0.539063"/><stop stop-opacity="1" stop-color="rgb(71.855164%, 54.598999%, 14.109802%)" offset="0.542969"/><stop stop-opacity="1" stop-color="rgb(71.669006%, 54.341125%, 13.61084%)" offset="0.546875"/><stop stop-opacity="1" stop-color="rgb(71.481323%, 54.081726%, 13.111877%)" offset="0.550781"/><stop stop-opacity="1" stop-color="rgb(71.29364%, 53.823853%, 12.612915%)" offset="0.554688"/><stop stop-opacity="1" stop-color="rgb(71.105957%, 53.564453%, 12.113953%)" offset="0.558594"/><stop stop-opacity="1" stop-color="rgb(70.9198%, 53.30658%, 11.61499%)" offset="0.5625"/><stop stop-opacity="1" stop-color="rgb(70.732117%, 53.04718%, 11.116028%)" offset="0.566406"/><stop stop-opacity="1" stop-color="rgb(70.545959%, 52.789307%, 10.617065%)" offset="0.570312"/><stop stop-opacity="1" stop-color="rgb(70.358276%, 52.529907%, 10.118103%)" offset="0.574219"/><stop stop-opacity="1" stop-color="rgb(70.170593%, 52.272034%, 9.619141%)" offset="0.578125"/><stop stop-opacity="1" stop-color="rgb(69.98291%, 52.012634%, 9.12323%)" offset="0.582031"/><stop stop-opacity="1" stop-color="rgb(69.795227%, 51.754761%, 8.627319%)" offset="0.585937"/><stop stop-opacity="1" stop-color="rgb(69.490051%, 51.416016%, 8.44574%)" offset="0.589844"/><stop stop-opacity="1" stop-color="rgb(69.184875%, 51.078796%, 8.26416%)" offset="0.59375"/><stop stop-opacity="1" stop-color="rgb(68.8797%, 50.741577%, 8.082581%)" offset="0.597656"/><stop stop-opacity="1" stop-color="rgb(68.57605%, 50.404358%, 7.901001%)" offset="0.601563"/><stop stop-opacity="1" stop-color="rgb(68.270874%, 50.065613%, 7.719421%)" offset="0.605469"/><stop stop-opacity="1" stop-color="rgb(67.965698%, 49.728394%, 7.539368%)" offset="0.609375"/><stop stop-opacity="1" stop-color="rgb(67.660522%, 49.391174%, 7.357788%)" offset="0.613281"/><stop stop-opacity="1" stop-color="rgb(67.356873%, 49.053955%, 7.176208%)" offset="0.617188"/><stop stop-opacity="1" stop-color="rgb(67.051697%, 48.716736%, 6.994629%)" offset="0.621094"/><stop stop-opacity="1" stop-color="rgb(66.746521%, 48.379517%, 6.814575%)" offset="0.625"/><stop stop-opacity="1" stop-color="rgb(66.441345%, 48.040771%, 6.632996%)" offset="0.628906"/><stop stop-opacity="1" stop-color="rgb(66.137695%, 47.703552%, 6.451416%)" offset="0.632812"/><stop stop-opacity="1" stop-color="rgb(65.83252%, 47.366333%, 6.269836%)" offset="0.636719"/><stop stop-opacity="1" stop-color="rgb(65.527344%, 47.029114%, 6.088257%)" offset="0.640625"/><stop stop-opacity="1" stop-color="rgb(65.222168%, 46.690369%, 5.906677%)" offset="0.644531"/><stop stop-opacity="1" stop-color="rgb(64.918518%, 46.353149%, 5.726624%)" offset="0.648437"/><stop stop-opacity="1" stop-color="rgb(64.613342%, 46.01593%, 5.545044%)" offset="0.652344"/><stop stop-opacity="1" stop-color="rgb(64.308167%, 45.678711%, 5.363464%)" offset="0.65625"/><stop stop-opacity="1" stop-color="rgb(64.002991%, 45.339966%, 5.181885%)" offset="0.660156"/><stop stop-opacity="1" stop-color="rgb(63.699341%, 45.002747%, 5.001831%)" offset="0.664063"/><stop stop-opacity="1" stop-color="rgb(63.394165%, 44.665527%, 4.820251%)" offset="0.667969"/><stop stop-opacity="1" stop-color="rgb(63.088989%, 44.328308%, 4.638672%)" offset="0.671875"/><stop stop-opacity="1" stop-color="rgb(62.783813%, 43.989563%, 4.457092%)" offset="0.675781"/><stop stop-opacity="1" stop-color="rgb(62.480164%, 43.652344%, 4.275513%)" offset="0.679688"/><stop stop-opacity="1" stop-color="rgb(62.174988%, 43.315125%, 4.093933%)" offset="0.683594"/><stop stop-opacity="1" stop-color="rgb(61.869812%, 42.977905%, 3.913879%)" offset="0.6875"/><stop stop-opacity="1" stop-color="rgb(61.564636%, 42.640686%, 3.7323%)" offset="0.691406"/><stop stop-opacity="1" stop-color="rgb(61.260986%, 42.303467%, 3.55072%)" offset="0.695312"/><stop stop-opacity="1" stop-color="rgb(60.955811%, 41.964722%, 3.369141%)" offset="0.699219"/><stop stop-opacity="1" stop-color="rgb(60.650635%, 41.627502%, 3.189087%)" offset="0.703125"/><stop stop-opacity="1" stop-color="rgb(60.345459%, 41.290283%, 3.007507%)" offset="0.707031"/><stop stop-opacity="1" stop-color="rgb(60.041809%, 40.953064%, 2.825928%)" offset="0.710937"/><stop stop-opacity="1" stop-color="rgb(59.736633%, 40.614319%, 2.644348%)" offset="0.714844"/><stop stop-opacity="1" stop-color="rgb(59.431458%, 40.2771%, 2.462769%)" offset="0.71875"/><stop stop-opacity="1" stop-color="rgb(59.126282%, 39.93988%, 2.281189%)" offset="0.722656"/><stop stop-opacity="1" stop-color="rgb(58.822632%, 39.602661%, 2.101135%)" offset="0.726563"/><stop stop-opacity="1" stop-color="rgb(58.517456%, 39.263916%, 1.919556%)" offset="0.730469"/><stop stop-opacity="1" stop-color="rgb(58.21228%, 38.926697%, 1.737976%)" offset="0.734375"/><stop stop-opacity="1" stop-color="rgb(57.907104%, 38.589478%, 1.556396%)" offset="0.738281"/><stop stop-opacity="1" stop-color="rgb(57.603455%, 38.252258%, 1.376343%)" offset="0.742188"/><stop stop-opacity="1" stop-color="rgb(57.298279%, 37.913513%, 1.194763%)" offset="0.746094"/><stop stop-opacity="1" stop-color="rgb(56.993103%, 37.576294%, 1.013184%)" offset="0.75"/><stop stop-opacity="1" stop-color="rgb(56.687927%, 37.239075%, 0.831604%)" offset="0.753906"/><stop stop-opacity="1" stop-color="rgb(56.384277%, 36.901855%, 0.650024%)" offset="0.757812"/><stop stop-opacity="1" stop-color="rgb(56.079102%, 36.564636%, 0.468445%)" offset="0.761719"/><stop stop-opacity="1" stop-color="rgb(55.773926%, 36.227417%, 0.288391%)" offset="0.765625"/><stop stop-opacity="1" stop-color="rgb(55.622864%, 36.062622%, 0.256348%)" offset="0.773437"/><stop stop-opacity="1" stop-color="rgb(55.923462%, 36.416626%, 0.784302%)" offset="0.777344"/><stop stop-opacity="1" stop-color="rgb(56.373596%, 36.935425%, 1.342773%)" offset="0.78125"/><stop stop-opacity="1" stop-color="rgb(56.82373%, 37.452698%, 1.899719%)" offset="0.785156"/><stop stop-opacity="1" stop-color="rgb(57.273865%, 37.969971%, 2.458191%)" offset="0.789063"/><stop stop-opacity="1" stop-color="rgb(57.723999%, 38.487244%, 3.015137%)" offset="0.792969"/><stop stop-opacity="1" stop-color="rgb(58.175659%, 39.004517%, 3.573608%)" offset="0.796875"/><stop stop-opacity="1" stop-color="rgb(58.625793%, 39.52179%, 4.130554%)" offset="0.800781"/><stop stop-opacity="1" stop-color="rgb(59.075928%, 40.039062%, 4.689026%)" offset="0.804688"/><stop stop-opacity="1" stop-color="rgb(59.526062%, 40.556335%, 5.245972%)" offset="0.808594"/><stop stop-opacity="1" stop-color="rgb(59.976196%, 41.073608%, 5.804443%)" offset="0.8125"/><stop stop-opacity="1" stop-color="rgb(60.426331%, 41.590881%, 6.361389%)" offset="0.816406"/><stop stop-opacity="1" stop-color="rgb(60.876465%, 42.108154%, 6.919861%)" offset="0.820312"/><stop stop-opacity="1" stop-color="rgb(61.326599%, 42.625427%, 7.476807%)" offset="0.824219"/><stop stop-opacity="1" stop-color="rgb(61.778259%, 43.1427%, 8.035278%)" offset="0.828125"/><stop stop-opacity="1" stop-color="rgb(62.228394%, 43.659973%, 8.592224%)" offset="0.832031"/><stop stop-opacity="1" stop-color="rgb(62.678528%, 44.177246%, 9.150696%)" offset="0.835937"/><stop stop-opacity="1" stop-color="rgb(63.128662%, 44.694519%, 9.709167%)" offset="0.839844"/><stop stop-opacity="1" stop-color="rgb(63.578796%, 45.213318%, 10.267639%)" offset="0.84375"/><stop stop-opacity="1" stop-color="rgb(64.028931%, 45.730591%, 10.824585%)" offset="0.847656"/><stop stop-opacity="1" stop-color="rgb(64.480591%, 46.247864%, 11.383057%)" offset="0.851563"/><stop stop-opacity="1" stop-color="rgb(64.930725%, 46.765137%, 11.940002%)" offset="0.855469"/><stop stop-opacity="1" stop-color="rgb(65.380859%, 47.28241%, 12.498474%)" offset="0.859375"/><stop stop-opacity="1" stop-color="rgb(65.830994%, 47.799683%, 13.05542%)" offset="0.863281"/><stop stop-opacity="1" stop-color="rgb(66.281128%, 48.316956%, 13.613892%)" offset="0.867188"/><stop stop-opacity="1" stop-color="rgb(66.731262%, 48.834229%, 14.170837%)" offset="0.871094"/><stop stop-opacity="1" stop-color="rgb(67.181396%, 49.351501%, 14.729309%)" offset="0.875"/><stop stop-opacity="1" stop-color="rgb(67.631531%, 49.868774%, 15.286255%)" offset="0.878906"/><stop stop-opacity="1" stop-color="rgb(68.083191%, 50.386047%, 15.844727%)" offset="0.882812"/><stop stop-opacity="1" stop-color="rgb(68.533325%, 50.90332%, 16.401672%)" offset="0.886719"/><stop stop-opacity="1" stop-color="rgb(68.983459%, 51.420593%, 16.960144%)" offset="0.890625"/><stop stop-opacity="1" stop-color="rgb(69.433594%, 51.937866%, 17.51709%)" offset="0.894531"/><stop stop-opacity="1" stop-color="rgb(69.883728%, 52.455139%, 18.075562%)" offset="0.898437"/><stop stop-opacity="1" stop-color="rgb(70.333862%, 52.972412%, 18.634033%)" offset="0.902344"/><stop stop-opacity="1" stop-color="rgb(70.785522%, 53.489685%, 19.192505%)" offset="0.90625"/><stop stop-opacity="1" stop-color="rgb(71.235657%, 54.006958%, 19.749451%)" offset="0.910156"/><stop stop-opacity="1" stop-color="rgb(71.685791%, 54.525757%, 20.307922%)" offset="0.914063"/><stop stop-opacity="1" stop-color="rgb(72.135925%, 55.04303%, 20.864868%)" offset="0.917969"/><stop stop-opacity="1" stop-color="rgb(72.58606%, 55.560303%, 21.42334%)" offset="0.921875"/><stop stop-opacity="1" stop-color="rgb(73.036194%, 56.077576%, 21.980286%)" offset="0.925781"/><stop stop-opacity="1" stop-color="rgb(73.486328%, 56.594849%, 22.538757%)" offset="0.929688"/><stop stop-opacity="1" stop-color="rgb(73.936462%, 57.112122%, 23.095703%)" offset="0.933594"/><stop stop-opacity="1" stop-color="rgb(74.388123%, 57.629395%, 23.654175%)" offset="0.9375"/><stop stop-opacity="1" stop-color="rgb(74.838257%, 58.146667%, 24.211121%)" offset="0.941406"/><stop stop-opacity="1" stop-color="rgb(75.288391%, 58.66394%, 24.769592%)" offset="0.945312"/><stop stop-opacity="1" stop-color="rgb(75.738525%, 59.181213%, 25.326538%)" offset="0.949219"/><stop stop-opacity="1" stop-color="rgb(76.18866%, 59.698486%, 25.88501%)" offset="0.953125"/><stop stop-opacity="1" stop-color="rgb(76.638794%, 60.215759%, 26.441956%)" offset="0.957031"/><stop stop-opacity="1" stop-color="rgb(77.090454%, 60.733032%, 27.000427%)" offset="0.960937"/><stop stop-opacity="1" stop-color="rgb(77.540588%, 61.250305%, 27.558899%)" offset="0.964844"/><stop stop-opacity="1" stop-color="rgb(77.990723%, 61.767578%, 28.117371%)" offset="0.96875"/><stop stop-opacity="1" stop-color="rgb(78.440857%, 62.284851%, 28.674316%)" offset="0.972656"/><stop stop-opacity="1" stop-color="rgb(78.890991%, 62.802124%, 29.232788%)" offset="0.976563"/><stop stop-opacity="1" stop-color="rgb(79.341125%, 63.319397%, 29.789734%)" offset="0.980469"/><stop stop-opacity="1" stop-color="rgb(79.792786%, 63.838196%, 30.348206%)" offset="0.984375"/><stop stop-opacity="1" stop-color="rgb(80.24292%, 64.355469%, 30.905151%)" offset="0.988281"/><stop stop-opacity="1" stop-color="rgb(80.693054%, 64.872742%, 31.463623%)" offset="0.992188"/><stop stop-opacity="1" stop-color="rgb(81.520081%, 65.769958%, 34.356689%)" offset="0.996094"/><stop stop-opacity="1" stop-color="rgb(82.348633%, 66.668701%, 37.249756%)" offset="1"/></linearGradient><clipPath id="09fbbbbf86"><path d="M 25 0.996094 L 72 0.996094 L 72 88 L 25 88 Z M 25 0.996094 " clip-rule="nonzero"/></clipPath><clipPath id="6c722b0535"><rect x="0" width="47" y="0" height="88"/></clipPath><clipPath id="341b0f9620"><rect x="0" width="27" y="0" height="68"/></clipPath><clipPath id="50ba6db081"><rect x="0" width="94" y="0" height="91"/></clipPath></defs><g clip-path="url(#9d69c64b7b)"><path fill="#ffffff" d="M 0 0.0351562 L 109.003906 0.0351562 L 109.003906 123.96875 L 0 123.96875 Z M 0 0.0351562 " fill-opacity="1" fill-rule="nonzero"/></g><g transform="matrix(1, 0, 0, 1, 6, 16)"><g clip-path="url(#50ba6db081)"><g clip-path="url(#834210c88f)"><g clip-path="url(#ec8a38a50f)"><path fill="url(#9417378140)" d="M 0.855469 2.230469 L 0.855469 89.101562 L 92.328125 89.101562 L 92.328125 2.230469 Z M 0.855469 2.230469 " fill-rule="nonzero"/></g></g><g clip-path="url(#09fbbbbf86)"><g transform="matrix(1, 0, 0, 1, 25, -0.000000000000007105)"><g clip-path="url(#6c722b0535)"><g fill="#d6ccba" fill-opacity="1"><g transform="translate(0.677862, 70.672094)"><g><path d="M 24.3125 -46.6875 C 27.113281 -46.6875 29.375 -46.265625 31.09375 -45.421875 C 32.820312 -44.578125 34.441406 -43.597656 35.953125 -42.484375 C 36.515625 -42.046875 36.941406 -41.828125 37.234375 -41.828125 C 38.054688 -41.828125 38.597656 -43.144531 38.859375 -45.78125 L 40.34375 -45.78125 C 40.257812 -44.1875 40.195312 -42.242188 40.15625 -39.953125 C 40.113281 -37.671875 40.09375 -34.65625 40.09375 -30.90625 L 38.59375 -30.90625 C 38.289062 -32.71875 37.925781 -34.460938 37.5 -36.140625 C 37.070312 -37.828125 36.359375 -39.269531 35.359375 -40.46875 C 34.109375 -42.0625 32.472656 -43.300781 30.453125 -44.1875 C 28.429688 -45.070312 26.34375 -45.515625 24.1875 -45.515625 C 22.03125 -45.515625 20.078125 -44.984375 18.328125 -43.921875 C 16.585938 -42.867188 15.09375 -41.351562 13.84375 -39.375 C 12.59375 -37.394531 11.628906 -35.015625 10.953125 -32.234375 C 10.285156 -29.453125 9.953125 -26.316406 9.953125 -22.828125 C 9.953125 -15.066406 11.203125 -9.382812 13.703125 -5.78125 C 16.203125 -2.1875 20.082031 -0.390625 25.34375 -0.390625 C 26.894531 -0.390625 28.238281 -0.613281 29.375 -1.0625 C 30.519531 -1.519531 31.414062 -1.960938 32.0625 -2.390625 C 32.882812 -2.953125 33.398438 -3.476562 33.609375 -3.96875 C 33.828125 -4.46875 33.9375 -5.128906 33.9375 -5.953125 L 33.9375 -12.15625 C 33.9375 -13.925781 33.765625 -15.238281 33.421875 -16.09375 C 33.078125 -16.957031 32.441406 -17.539062 31.515625 -17.84375 C 30.585938 -18.144531 29.222656 -18.316406 27.421875 -18.359375 L 27.421875 -19.65625 C 28.191406 -19.613281 29.09375 -19.582031 30.125 -19.5625 C 31.164062 -19.539062 32.253906 -19.519531 33.390625 -19.5 C 34.535156 -19.476562 35.582031 -19.46875 36.53125 -19.46875 C 37.957031 -19.46875 39.238281 -19.488281 40.375 -19.53125 C 41.519531 -19.570312 42.476562 -19.613281 43.25 -19.65625 L 43.25 -18.359375 C 42.300781 -18.316406 41.585938 -18.164062 41.109375 -17.90625 C 40.640625 -17.644531 40.328125 -17.125 40.171875 -16.34375 C 40.023438 -15.570312 39.953125 -14.390625 39.953125 -12.796875 L 39.953125 0 L 38.671875 0 C 38.617188 -0.726562 38.453125 -1.523438 38.171875 -2.390625 C 37.898438 -3.253906 37.484375 -3.6875 36.921875 -3.6875 C 36.660156 -3.6875 36.398438 -3.617188 36.140625 -3.484375 C 35.878906 -3.359375 35.425781 -3.0625 34.78125 -2.59375 C 33.363281 -1.507812 31.851562 -0.65625 30.25 -0.03125 C 28.65625 0.59375 26.804688 0.90625 24.703125 0.90625 C 20.265625 0.90625 16.457031 -0.0078125 13.28125 -1.84375 C 10.113281 -3.675781 7.6875 -6.316406 6 -9.765625 C 4.320312 -13.210938 3.484375 -17.328125 3.484375 -22.109375 C 3.484375 -27.148438 4.390625 -31.503906 6.203125 -35.171875 C 8.015625 -38.835938 10.484375 -41.671875 13.609375 -43.671875 C 16.734375 -45.679688 20.300781 -46.6875 24.3125 -46.6875 Z M 24.3125 -46.6875 "/></g></g></g></g></g></g><g transform="matrix(1, 0, 0, 1, 18, 12)"><g clip-path="url(#341b0f9620)"><g fill="#d9b98e" fill-opacity="1"><g transform="translate(8.280984, 51.865954)"><g><path d="M -4.140625 7.765625 C -4.953125 7.765625 -5.582031 7.675781 -6.03125 7.5 C -6.488281 7.320312 -6.71875 6.9375 -6.71875 6.34375 C -6.71875 5.644531 -6.40625 4.972656 -5.78125 4.328125 C -5.15625 3.679688 -4.285156 3.359375 -3.171875 3.359375 C -2.265625 3.359375 -1.347656 3.429688 -0.421875 3.578125 C 0.503906 3.734375 1.742188 3.984375 3.296875 4.328125 C 3.816406 3.984375 4.332031 3.519531 4.84375 2.9375 C 5.363281 2.351562 5.804688 1.457031 6.171875 0.25 C 6.535156 -0.945312 6.71875 -2.625 6.71875 -4.78125 L 6.71875 -37.046875 C 6.71875 -39.722656 6.535156 -41.546875 6.171875 -42.515625 C 5.804688 -43.484375 5.128906 -44.117188 4.140625 -44.421875 L 4.140625 -45.265625 L 14.546875 -45.265625 L 14.546875 -44.421875 C 13.554688 -44.117188 12.878906 -43.484375 12.515625 -42.515625 C 12.148438 -41.546875 11.96875 -39.722656 11.96875 -37.046875 L 11.96875 -12.671875 C 11.96875 -8.535156 11.203125 -4.9375 9.671875 -1.875 C 8.140625 1.1875 6.15625 3.554688 3.71875 5.234375 C 1.28125 6.921875 -1.335938 7.765625 -4.140625 7.765625 Z M -4.140625 7.765625 "/></g></g></g></g></g></g></g></svg>